PathFileType	4	(X/Y/Z)	Walk5.trc
DataRate	CameraRate	NumFrames	NumMarkers	Units	OrigDataRate	OrigDataStartFrame	OrigNumFrames
200.000000	200.000000	4	59	mm	200.000000	325	541
Frame#	Times		LFHD		RFHD		CLAV		STRN		LASI		RASI		RACR1		RUA1		RElbow		RFA1		RWRR		RWRU		RCAR		LACR1		LUA1		LElbow		LFA1		LWRR		LWRU		LCAR		RTH3		RTH2		RMFC		RTB1		RTB3		RTB2		RTB4		LTH1		LTH3		LTH2		LMFC		LTB1		LTB2		LTB4		LMT1		RTH4		RToe		RMT1		LTH4		RTH1		RLFC		RElbowM		RMMAL		LMT5		RBHD		LTB3		RCAL		LToe		LLFC		RBack		RPSI		C7		LMMAL		T10		LPSI		LLMAL		LCAL		LBHD		LElbowM
			X1	Y1	Z1	X2	Y2	Z2	X3	Y3	Z3	X4	Y4	Z4	X5	Y5	Z5	X6	Y6	Z6	X7	Y7	Z7	X8	Y8	Z8	X9	Y9	Z9	X10	Y10	Z10	X11	Y11	Z11	X12	Y12	Z12	X13	Y13	Z13	X14	Y14	Z14	X15	Y15	Z15	X16	Y16	Z16	X17	Y17	Z17	X18	Y18	Z18	X19	Y19	Z19	X20	Y20	Z20	X21	Y21	Z21	X22	Y22	Z22	X23	Y23	Z23	X24	Y24	Z24	X25	Y25	Z25	X26	Y26	Z26	X27	Y27	Z27	X28	Y28	Z28	X29	Y29	Z29	X30	Y30	Z30	X31	Y31	Z31	X32	Y32	Z32	X33	Y33	Z33	X34	Y34	Z34	X35	Y35	Z35	X36	Y36	Z36	X37	Y37	Z37	X38	Y38	Z38	X39	Y39	Z39	X40	Y40	Z40	X41	Y41	Z41	X42	Y42	Z42	X43	Y43	Z43	X44	Y44	Z44	X45	Y45	Z45	X46	Y46	Z46	X47	Y47	Z47	X48	Y48	Z48	X49	Y49	Z49	X50	Y50	Z50	X51	Y51	Z51	X52	Y52	Z52	X53	Y53	Z53	X54	Y54	Z54	X55	Y55	Z55	X56	Y56	Z56	X57	Y57	Z57	X58	Y58	Z58	X59	Y59	Z59

325	1.625	285.03	1635.9	79.565	288.59	1634.2	-19.718	301.45	1369.5	37.028	367.77	1211.2	28.293	216.11	960.89	-158.52	285.38	942.46	202.14	184.12	1452.6	206.24	126.77	1295.4	322.31	104.75	1147.6	372.76	103.08	992.05	390.11	100.15	870.56	322.58	90.479	877.87	403.67	96.803	785.64	371.49	181.29	1433.9	-143.41	194.56	1267.2	-239.82	250.07	1117.3	-302.05	343.49	1014.9	-305.48	445.48	941.29	-235.08	426.4	904.16	-296.58	510.74	884.38	-264.05	333.24	611.77	214	337.89	716.93	210.03	345.17	500.71	53.779	449.42	401.6	129.9	465.2	230.08	112.92	440.04	309.36	180.03	457.44	315.46	121.38	100.16	732.77	-178.09	70.539	565.05	-158.62	142.5	640.95	-156.51	61.869	466.95	0.16186	29.114	342.46	-89.417	-53.756	288.85	-120.87	-22.905	279.5	-67.596	-132.52	34.454	-26.296	291.04	685.42	228.31	622.72	61.768	117.33	584.48	46.996	84.578	84.78	649.87	-168.13	246.99	758.96	241.61	363.03	502.82	206.79	44.856	1086.6	275.13	450.39	90.159	53.457	-201.55	35.925	-95.615	145.2	1545.1	-34.941	-82.997	218.98	-48.55	363.57	42.127	88.163	-86.458	23.969	-67.201	28.9	487.24	-153.16	39.525	1336.1	145.68	0.89717	997.86	92.101	106.22	1450.3	36.709	-217.09	139.52	43.094	40.987	1137	47.124	-4.2307	1013.2	8.5814	-249.86	143.9	-40.687	-303.13	147.8	19.588	154.96	1553.8	112.25	206	1030.7	-220.93
326	1.63	291.81	1636.1	80.815	295.31	1634.5	-18.468	308.45	1369.8	38.257	374.82	1211.6	29.419	223.83	961.07	-157.1	292.45	943.29	202.71	190.96	1452.4	207.5	134.08	1294.7	323.2	112.45	1146.8	373.36	111.07	991.24	390.6	108.41	869.78	323	98.723	877.05	404.08	105.39	784.91	371.87	188.48	1434.3	-142.21	200.87	1267.5	-238.74	255.3	1117.3	-300.91	348.04	1014.3	-304.38	449.7	940.11	-234.13	430.26	902.95	-295.52	514.59	882.83	-263.11	340.4	612.54	214.73	344.81	717.7	210.61	352.5	501.9	54.166	455.18	401	130.03	468.62	229.32	112.7	444.81	308.82	180.06	462.04	314.78	121.34	107.91	732.81	-178.04	78.675	564.94	-159.38	150.42	641.02	-156.68	70.033	466.47	-0.90717	35.776	342.61	-90.713	-47.919	290.24	-122.05	-17.147	280.36	-68.838	-132.12	34.265	-25.961	298.05	686.1	228.93	624.17	58.486	116.32	585.37	44.296	83.891	92.768	649.85	-168.54	253.82	759.57	242.16	370.03	503.06	207.39	52.729	1085.8	275.71	451.56	89.643	53.1	-200.42	37.402	-95.509	152.01	1545.2	-33.656	-77.946	220.62	-49.76	364.23	42.762	88.197	-86.879	23.841	-67.009	37.026	487.29	-154.28	46.414	1336.1	146.62	7.8566	997.97	92.388	113.2	1450.6	37.913	-212.89	142.97	42.021	47.852	1137.2	47.359	2.8058	1013	8.5097	-245.82	147.85	-41.632	-298.43	153.22	18.706	161.87	1553.9	113.54	210.8	1030.9	-219.73
327	1.635	298.58	1636.4	82.05	302.03	1634.9	-17.233	315.41	1370.1	39.467	381.8	1212	30.534	231.55	961.33	-155.67	299.47	944.23	203.36	197.78	1452.3	208.73	141.39	1294.2	324.06	120.2	1146.1	373.91	119.13	990.55	391.07	116.78	869.12	323.41	107.07	876.34	404.48	114.1	784.3	372.24	195.66	1434.9	-141.02	207.2	1268	-237.66	260.49	1117.3	-299.74	352.48	1013.7	-303.29	453.76	938.88	-233.2	433.94	901.73	-294.47	518.23	881.2	-262.21	347.33	613.19	215.41	351.61	718.35	211.23	359.85	503.04	54.416	460.74	400.38	130.09	471.87	228.56	112.38	449.4	308.25	180	466.47	314.09	121.21	115.77	732.92	-178	87.044	564.88	-160.21	158.53	641.17	-156.9	78.525	465.99	-2.0656	42.743	342.82	-92.119	-41.774	291.73	-123.3	-11.049	281.28	-70.188	-131.61	34.119	-25.61	304.89	686.7	229.55	625.49	55.46	115.29	586.13	41.827	83.169	100.94	649.89	-169.01	260.58	760.15	242.72	376.78	503.19	207.91	60.657	1085	276.26	452.61	89.152	52.675	-199.08	39.027	-95.402	158.8	1545.4	-32.39	-72.547	222.33	-51.067	364.83	43.345	88.184	-87.256	23.682	-66.845	45.431	487.38	-155.49	53.277	1336.2	147.55	14.782	998.13	92.658	120.16	1451	39.076	-208.27	146.51	40.893	54.694	1137.5	47.611	9.8256	1012.9	8.4247	-241.4	151.9	-42.615	-293.26	158.75	17.803	168.77	1554.1	114.81	215.58	1031.3	-218.46
328	1.64	305.34	1636.8	83.267	308.73	1635.3	-16.018	322.34	1370.4	40.656	388.73	1212.4	31.633	239.24	961.67	-154.21	306.42	945.24	204.09	204.57	1452.4	209.92	148.71	1293.7	324.91	127.97	1145.6	374.44	127.26	989.98	391.52	125.26	868.59	323.8	115.53	875.75	404.85	122.95	783.81	372.6	202.81	1435.5	-139.83	213.55	1268.5	-236.58	265.63	1117.4	-298.54	356.82	1013.2	-302.2	457.68	937.6	-232.29	437.43	900.48	-293.45	521.68	879.48	-261.34	353.98	613.69	216.05	358.28	718.85	211.89	367.17	504.1	54.537	466.1	399.73	130.06	474.96	227.82	111.96	453.8	307.65	179.85	470.7	313.39	120.99	123.77	733.09	-177.99	95.642	564.87	-161.1	166.8	641.41	-157.15	87.347	465.52	-3.3033	50.023	343.09	-93.622	-35.308	293.3	-124.64	-4.6021	282.28	-71.634	-130.95	34.041	-25.258	311.55	687.19	230.13	626.68	52.675	114.25	586.79	39.58	82.428	109.29	649.99	-169.52	267.22	760.67	243.29	383.28	503.21	208.36	68.629	1084.4	276.78	453.54	88.676	52.186	-197.49	40.808	-95.297	165.57	1545.7	-31.144	-66.789	224.12	-52.46	365.38	43.878	88.125	-87.553	23.488	-66.719	54.114	487.51	-156.78	60.114	1336.3	148.46	21.671	998.33	92.921	127.06	1451.4	40.199	-203.23	150.1	39.712	61.511	1137.8	47.892	16.828	1012.8	8.3475	-236.58	156.03	-43.634	-287.63	164.38	16.88	175.64	1554.3	116.08	220.35	1031.8	-217.13
